<svg xmlns="http://www.w3.org/2000/svg" version="1.1" xmlns:xlink="http://www.w3.org/1999/xlink" width="30" height="30"><svg xmlns="http://www.w3.org/2000/svg" version="1.1" xmlns:xlink="http://www.w3.org/1999/xlink" width="30" height="30"><svg xmlns="http://www.w3.org/2000/svg" viewBox="0 0 30 30" fill="red">
    <defs>
        <clipPath id="clip-laudaapi">
            <path d="M 1.964844 5 L 28.027344 5 L 28.027344 29.03125 L 1.964844 29.03125 Z"></path>
        </clipPath>
    </defs>
    <g clip-path="url(#clip-laudaapi)">
        <path d="M 10.90625 7.480469 C 5.839844 8.390625 1.964844 12.847656 1.964844 18.167969 
               C 1.964844 24.140625 6.851562 29.027344 12.824219 29.027344 L 28.027344 29.027344 
               L 23.683594 24.683594 L 12.824219 24.683594 C 9.242188 24.683594 6.308594 21.75 
               6.308594 18.167969 C 6.308594 14.585938 9.242188 11.652344 12.824219 11.652344 
               L 14.996094 11.652344 L 14.996094 5.019531 L 10.652344 7.527344 
               C 10.738281 7.511719 10.820312 7.496094 10.90625 7.480469 Z"></path>
    </g>
    <path d="M 19.339844 7.308594 C 19.339844 10.203125 19.339844 13.101562 19.339844 15.996094 
           L 12.824219 15.996094 C 11.628906 15.996094 10.652344 16.972656 10.652344 18.167969 
           C 10.652344 19.363281 11.628906 20.339844 12.824219 20.339844 L 23.683594 20.339844 
           C 23.683594 15.996094 23.683594 11.652344 23.683594 7.308594 L 23.683594 0.00390625 
           L 19.339844 2.511719 Z"></path>
</svg></svg><style>@media (prefers-color-scheme: light) { :root { filter: none; } }
@media (prefers-color-scheme: dark) { :root { filter: none; } }
</style></svg>